<?xml version="1.0" encoding="UTF-8"?>
<svg version="1.1" xmlns="http://www.w3.org/2000/svg" width="96" height="96">
<path d="M0 0 C6.11445486 4.65916948 10.37983186 10.00466681 12.1171875 17.61328125 C12.58809862 22.90194711 12.67671993 28.18298304 12.7421875 33.48828125 C12.77875046 35.62529027 12.81932258 37.76211926 12.86483765 39.8989563 C12.90427443 41.82165202 12.93217785 43.74457405 12.95947266 45.66748047 C12.91723024 48.5456633 12.91723024 48.5456633 14.1171875 50.61328125 C15.4371875 50.61328125 16.7571875 50.61328125 18.1171875 50.61328125 C18.6121875 49.62328125 18.6121875 49.62328125 19.1171875 48.61328125 C22.0871875 48.61328125 25.0571875 48.61328125 28.1171875 48.61328125 C27.9452918 52.99662167 27.51568839 55.13303659 24.6796875 58.55078125 C21.15954175 61.1039472 17.78827954 61.31893728 13.52734375 61.11328125 C9.5900564 60.29646961 7.83084509 58.53568174 5.1171875 55.61328125 C3.78715033 52.95320691 3.93846635 50.83947142 3.87109375 47.86328125 C3.83822266 46.69667969 3.80535156 45.53007813 3.77148438 44.328125 C3.71106053 41.88288789 3.65368748 39.43757318 3.59960938 36.9921875 C3.42320662 22.82238367 3.42320662 22.82238367 -2.8828125 10.61328125 C-8.08535405 6.49460252 -12.42399053 5.98357543 -19.0078125 6.23046875 C-24.49250841 6.96076793 -27.50719469 9.05176914 -31.1953125 13.23828125 C-35.94714487 22.74194599 -35.21357984 33.60436453 -35.18554688 43.9765625 C-35.35482104 53.75078058 -35.35482104 53.75078058 -38.30078125 57.37890625 C-42.34885049 60.88192532 -45.09699128 61.02130931 -50.33203125 60.953125 C-54.63475657 60.37986757 -56.11280574 58.95149452 -58.8828125 55.61328125 C-59.7578125 51.80078125 -59.7578125 51.80078125 -59.8828125 48.61328125 C-56.9128125 48.61328125 -53.9428125 48.61328125 -50.8828125 48.61328125 C-50.5528125 49.27328125 -50.2228125 49.93328125 -49.8828125 50.61328125 C-48.5628125 50.61328125 -47.2428125 50.61328125 -45.8828125 50.61328125 C-44.43832303 47.7243023 -44.73637171 45.17825416 -44.70703125 41.953125 C-44.68380543 40.58787568 -44.65968703 39.2226413 -44.63476562 37.85742188 C-44.59988106 35.71385092 -44.5704392 33.5708201 -44.55688477 31.42700195 C-44.4686609 19.74751946 -43.08836121 11.02959932 -34.8359375 2.34375 C-25.70897354 -5.74274007 -10.32288272 -6.16939961 0 0 Z " fill="#000000" transform="translate(63.8828125,11.38671875)"/>
<path d="M0 0 C2.64 0 5.28 0 8 0 C8.04898438 1.09699219 8.09796875 2.19398437 8.1484375 3.32421875 C8.22350591 4.77866925 8.29905197 6.23309516 8.375 7.6875 C8.4059375 8.40873047 8.436875 9.12996094 8.46875 9.87304688 C8.69074962 13.92453995 9.01710908 17.36469998 11 21 C13.52372901 22.36078035 13.52372901 22.36078035 16 23 C16 25.97 16 28.94 16 32 C12.24373441 32.35773958 10.26070693 32.13556761 6.875 30.375 C2.95932692 27.14031355 0.32070481 24.56318284 -0.31884766 19.45166016 C-0.39319212 16.49962862 -0.34900843 13.57621286 -0.25 10.625 C-0.23195312 9.60277344 -0.21390625 8.58054687 -0.1953125 7.52734375 C-0.14839491 5.01725251 -0.08276729 2.50912236 0 0 Z " fill="#000000" transform="translate(52,56)"/>
<path d="M0 0 C2.64 0 5.28 0 8 0 C8.11681812 3.54138618 8.187455 7.0822724 8.25 10.625 C8.30027344 12.12353516 8.30027344 12.12353516 8.3515625 13.65234375 C8.43301814 19.80224453 8.13700435 23.34026947 4 28 C0.7092334 30.71845937 -1.09640864 31.93306731 -5.375 32.25 C-6.24125 32.1675 -7.1075 32.085 -8 32 C-8 29.03 -8 26.06 -8 23 C-7.21625 22.773125 -6.4325 22.54625 -5.625 22.3125 C-2.88400253 21.25430215 -2.88400253 21.25430215 -1.875 18.9375 C-0.75260725 15.16946718 -0.54280214 11.5993875 -0.375 7.6875 C-0.31699219 6.57665039 -0.31699219 6.57665039 -0.2578125 5.44335938 C-0.16418295 3.62928691 -0.08103149 1.81467884 0 0 Z " fill="#000000" transform="translate(36,56)"/>
<path d="M0 0 C4.55555556 0.55555556 4.55555556 0.55555556 6 2 C6.12514928 3.97619447 6.1757276 5.95738173 6.1875 7.9375 C6.20167969 9.01902344 6.21585938 10.10054687 6.23046875 11.21484375 C6 14 6 14 4 16 C-0.55555556 15.44444444 -0.55555556 15.44444444 -2 14 C-2.12514928 12.02380553 -2.1757276 10.04261827 -2.1875 8.0625 C-2.20167969 6.98097656 -2.21585938 5.89945313 -2.23046875 4.78515625 C-2 2 -2 2 0 0 Z " fill="#000000" transform="translate(54,28)"/>
<path d="M0 0 C4.55555556 0.55555556 4.55555556 0.55555556 6 2 C6.12514928 3.97619447 6.1757276 5.95738173 6.1875 7.9375 C6.20167969 9.01902344 6.21585938 10.10054687 6.23046875 11.21484375 C6 14 6 14 4 16 C-0.55555556 15.44444444 -0.55555556 15.44444444 -2 14 C-2.12514928 12.02380553 -2.1757276 10.04261827 -2.1875 8.0625 C-2.20167969 6.98097656 -2.21585938 5.89945313 -2.23046875 4.78515625 C-2 2 -2 2 0 0 Z " fill="#000000" transform="translate(38,28)"/>
</svg>
